<?xml version="1.0" standalone="no"?>
<!DOCTYPE svg PUBLIC "-//W3C//DTD SVG 20010904//EN"
 "http://www.w3.org/TR/2001/REC-SVG-20010904/DTD/svg10.dtd">
<svg version="1.0" xmlns="http://www.w3.org/2000/svg"
 width="36.000000pt" height="36.000000pt" viewBox="0 0 36.000000 36.000000"
 preserveAspectRatio="xMidYMid meet">

<g transform="translate(0.000000,36.000000) scale(0.100000,-0.100000)"
fill="#000000" stroke="none">
<path d="M117 314 c-4 -4 -7 -47 -7 -94 0 -63 4 -91 14 -99 9 -8 46 -11 103
-9 l88 3 0 100 0 100 -95 3 c-53 1 -99 0 -103 -4z m183 -94 l0 -80 -80 0 -80
0 0 80 0 80 80 0 80 0 0 -80z"/>
<path d="M47 243 c-4 -3 -7 -51 -7 -105 l0 -99 103 3 102 3 3 28 c4 31 -17 38
-25 7 -5 -18 -14 -20 -84 -20 l-79 0 0 79 c0 70 2 79 20 84 11 3 20 10 20 16
0 12 -42 15 -53 4z"/>
</g>
</svg>
