<?xml version="1.0" standalone="no"?>
<!DOCTYPE svg PUBLIC "-//W3C//DTD SVG 20010904//EN"
 "http://www.w3.org/TR/2001/REC-SVG-20010904/DTD/svg10.dtd">
<svg version="1.0" xmlns="http://www.w3.org/2000/svg"
 width="32.000000pt" height="32.000000pt" viewBox="0 0 32.000000 32.000000"
 preserveAspectRatio="xMidYMid meet">

<g transform="translate(0.000000,32.000000) scale(0.100000,-0.100000)"
fill="#000000" stroke="none">
<path d="M59 243 c5 -10 30 -38 55 -63 l46 -44 55 54 c30 29 52 58 48 63 -3 5
-27 -13 -54 -39 l-49 -48 -48 47 c-49 49 -70 60 -53 30z"/>
<path d="M59 163 c5 -10 30 -38 55 -63 l46 -44 55 54 c30 29 52 58 48 63 -3 5
-27 -13 -54 -39 l-49 -48 -48 47 c-49 49 -70 60 -53 30z"/>
</g>
</svg>
