<?xml version="1.0" encoding="UTF-8"?>
<svg width="24px" height="24px" viewBox="0 0 24 24" version="1.1" xmlns="http://www.w3.org/2000/svg" xmlns:xlink="http://www.w3.org/1999/xlink">
    <title>copy</title>
    <g id="页面-" stroke="none" stroke-width="1" fill="none" fill-rule="evenodd">
        <g id="钱包账户成功接入备份" transform="translate(-688.000000, -380.000000)">
            <g id="编组-14备份" transform="translate(480.000000, 272.000000)">
                <g id="编组-17" transform="translate(31.000000, 104.000000)">
                    <g id="copy" transform="translate(177.000000, 4.000000)">
                        <path d="M11.1,8 L6.9,8 C3.4,8 2,9.4 2,12.9 L2,17.1 C2,20.6 3.4,22 6.9,22 L11.1,22 C14.6,22 16,20.6 16,17.1 L16,12.9 C16,9.4 14.6,8 11.1,8 Z" id="路径" stroke="#0057FF" stroke-width="1.5" stroke-linecap="round" stroke-linejoin="round" stroke-dasharray="0,0"></path>
                        <path d="M22,11.1 L22,6.9 C22,3.4 20.6,2 17.1,2 L12.9,2 C9.4,2 8,3.4 8,6.9 L8,8 L11.1,8 C14.6,8 16,9.4 16,12.9 L16,16 L17.1,16 C20.6,16 22,14.6 22,11.1 Z" id="路径" stroke="#0057FF" stroke-width="1.5" opacity="0.4" stroke-linecap="round" stroke-linejoin="round" stroke-dasharray="0,0"></path>
                        <polygon id="路径" opacity="0" points="0 24 24 24 24 0 0 0"></polygon>
                    </g>
                </g>
            </g>
        </g>
    </g>
</svg>