<?xml version="1.0" encoding="UTF-8"?>
<svg width="16px" height="16px" viewBox="0 0 16 16" version="1.1" xmlns="http://www.w3.org/2000/svg" xmlns:xlink="http://www.w3.org/1999/xlink">
    <title>钱包</title>
    <g id="切图与icon" stroke="none" stroke-width="1" fill="none" fill-rule="evenodd">
        <g id="规范汇总" transform="translate(-238.000000, -1021.000000)" fill="#777E90" fill-rule="nonzero">
            <g id="钱包" transform="translate(238.000000, 1021.000000)">
                <rect id="矩形" opacity="0" x="0" y="0" width="16" height="16"></rect>
                <path d="M10.96875,8.88125 C10.96875,9.10956505 11.0905546,9.32053686 11.2882812,9.43469439 C11.4860079,9.54885192 11.7296171,9.54885192 11.9273438,9.43469439 C12.1250704,9.32053686 12.246875,9.10956505 12.246875,8.88125 C12.246875,8.65293495 12.1250704,8.44196314 11.9273438,8.32780561 C11.7296171,8.21364808 11.4860079,8.21364808 11.2882812,8.32780561 C11.0905546,8.44196314 10.96875,8.65293495 10.96875,8.88125 L10.96875,8.88125 Z M11.1484375,10.2890625 C10.54375,10.2890625 10.0484375,9.79375 10.0484375,9.1890625 L10.0484375,8.4859375 C10.0484375,7.88125 10.54375,7.3859375 11.1484375,7.3859375 L15.14375,7.3859375 L15.14375,5.1125 C15.14375,4.5078125 14.6484375,4.0125 14.04375,4.0125 L2.0078125,4.0125 C1.403125,4.0125 0.9078125,4.5078125 0.9078125,5.1125 L0.9078125,13.35625 C0.9078125,13.9609375 1.403125,14.45625 2.0078125,14.45625 L14.04375,14.45625 C14.6484375,14.45625 15.14375,13.9609375 15.14375,13.35625 L15.14375,10.2890625 L11.1484375,10.2890625 Z M13.1171875,3.3140625 L11.95625,1.2109375 C11.6640625,0.68125 10.9921875,0.4875 10.4625,0.7796875 L5.8765625,3.3140625 L13.1171875,3.3140625 Z" id="形状"></path>
            </g>
        </g>
    </g>
</svg>