<?xml version="1.0" encoding="UTF-8"?>
<svg width="24px" height="24px" viewBox="0 0 24 24" version="1.1" xmlns="http://www.w3.org/2000/svg" xmlns:xlink="http://www.w3.org/1999/xlink">
    <title>矩形</title>
    <g id="切图与icon" stroke="none" stroke-width="1" fill="none" fill-rule="evenodd">
        <g id="规范汇总" transform="translate(-426.000000, -97.000000)">
            <g id="编组备份-5" transform="translate(422.000000, 93.000000)">
                <g id="矩形-2" fill="#3772FF" opacity="0">
                    <rect id="矩形" x="0" y="0" width="32" height="32" rx="8"></rect>
                </g>
                <g id="太阳" transform="translate(4.000000, 4.000000)" fill-rule="nonzero">
                    <rect id="矩形" fill="#000000" opacity="0" x="0" y="0" width="24" height="24"></rect>
                    <path d="M17.6348276,5.64155531 C17.8309979,5.64155531 18.0009813,5.71397496 18.1440825,5.85638095 C18.287879,5.9989028 18.3593717,6.17027665 18.3593717,6.36575174 C18.3593717,6.56620931 18.287879,6.73746729 18.1440825,6.87998915 L17.1204743,7.90348149 C16.9814286,8.04345417 16.8117929,8.11344052 16.6113353,8.11344052 C16.4033461,8.11344052 16.2316246,8.04345417 16.0936217,7.90834809 C15.9557347,7.77069283 15.8873706,7.59688569 15.8873706,7.38924408 C15.8873706,7.18890237 15.9566617,7.01996183 16.0962868,6.87998915 L17.1197791,5.85638095 C17.2636914,5.71397496 17.4349494,5.64155531 17.6349435,5.64155531 L17.6348276,5.64155531 Z M18.5175362,11.2758036 L19.965929,11.2758036 C20.1658072,11.2758036 20.3367176,11.3457899 20.4777331,11.4881959 C20.6199074,11.6307177 20.6903572,11.7996583 20.6903572,12 C20.6903572,12.2004576 20.6199074,12.3717156 20.4777331,12.5118041 C20.3367176,12.6542101 20.1658072,12.7241964 19.965929,12.7241964 L18.5175362,12.7241964 C18.317658,12.7241964 18.1472111,12.6542101 18.0050368,12.5118041 C17.8640213,12.3717156 17.7927604,12.2003417 17.7927604,12 C17.7927604,11.7995424 17.8640213,11.6306019 18.0050368,11.4881959 C18.1472111,11.3457899 18.317658,11.2758036 18.5175362,11.2758036 Z M12,3.30964279 C12.1998782,3.30964279 12.3700933,3.38206244 12.5121517,3.52203512 C12.6532831,3.66455698 12.7244282,3.83593082 12.7244282,4.03383923 L12.7244282,5.48223209 C12.7244282,5.68268966 12.6532831,5.85394764 12.5122676,5.9940362 C12.3700933,6.13644218 12.1998782,6.20886183 12,6.20886183 C11.79989,6.20886183 11.6296749,6.13644218 11.4875007,5.9940362 C11.3464851,5.85394764 11.2753401,5.6825738 11.2753401,5.48223209 L11.2753401,4.03383923 C11.2753401,3.83593082 11.3464851,3.66444112 11.4875007,3.52203512 C11.6297908,3.38206244 11.8000059,3.30964279 12.0001159,3.30964279 L12,3.30964279 Z M6.37061834,5.64155531 C6.5666728,5.64155531 6.73654031,5.71397496 6.88022088,5.85638095 L7.90371323,6.87998915 C8.04762554,7.02239513 8.11865473,7.19376897 8.11865473,7.38924408 C8.11865473,7.58970165 8.04808903,7.76107549 7.90637826,7.90104819 C7.76501513,8.04357005 7.59456825,8.11344052 7.39422656,8.11344052 C7.19040871,8.11344052 7.01857139,8.04345417 6.87975741,7.90591479 L5.85591745,6.88230657 C5.71594477,6.74233389 5.64665365,6.57096004 5.64665365,6.36575174 C5.64665365,6.16529417 5.71710348,5.99635363 5.85927772,5.85394765 C6.00029324,5.71397496 6.17120361,5.64155531 6.37154532,5.64155531 L6.37061834,5.64155531 L6.37061834,5.64155531 Z M16.6113353,15.8816929 C16.8073897,15.8816929 16.9771414,15.9516792 17.1204743,16.0965185 L18.1440825,17.1201267 C18.287879,17.264966 18.3593717,17.4339066 18.3593717,17.6342483 C18.3593717,17.8298392 18.287879,18.0012131 18.1440825,18.1436191 C18.0008655,18.2884583 17.8309979,18.3584447 17.6349435,18.3584447 C17.4350653,18.3584447 17.2636914,18.2884583 17.1197791,18.1436191 L16.0962868,17.1201267 C15.9566617,16.9824715 15.8873706,16.8110976 15.8873706,16.6107559 C15.8873706,16.4102984 15.9579363,16.2389245 16.099647,16.0965185 C16.2410102,15.9541125 16.4120364,15.8816929 16.6117988,15.8816929 L16.6113353,15.8816929 Z M12.0001159,9.10321426 C11.2003713,9.10321426 10.518352,9.3857088 9.95185661,9.95289946 C9.38617229,10.5177727 9.1030984,11.2009506 9.1030984,12 C9.1030984,12.7990494 9.38617231,13.4822273 9.95185661,14.0495338 C10.5184679,14.6141753 11.2003713,14.8967857 12,14.8967857 C12.7997446,14.8967857 13.4819956,14.6142912 14.0486069,14.049418 C14.6137118,13.4823432 14.8967857,12.7991652 14.8967857,12 C14.8967857,11.2009506 14.6137118,10.5177727 14.0486069,9.95289946 C13.4819956,9.38570881 12.7997446,9.10321426 12,9.10321426 L12.0001159,9.10321426 Z M4.03407097,11.2758036 L5.48246383,11.2758036 C5.68257378,11.2758036 5.85278893,11.3457899 5.99496317,11.4881959 C6.13597869,11.6307177 6.20723962,11.7996583 6.20723962,12 C6.20723962,12.2004576 6.13597869,12.3717156 5.99496317,12.5118041 C5.85278893,12.6542101 5.6825738,12.7241964 5.48246383,12.7241964 L4.03407097,12.7241964 C3.83419275,12.7241964 3.66351414,12.6542101 3.52226686,12.5118041 C3.38009262,12.3717156 3.30964279,12.2003417 3.30964279,12 C3.30964279,11.7995424 3.38009262,11.6306019 3.52226686,11.4881959 C3.66363,11.3457899 3.83419275,11.2758036 4.03407097,11.2758036 L4.03407097,11.2758036 Z M12.0001159,17.7935715 C12.1999941,17.7935715 12.3702092,17.8635578 12.5122676,18.0059638 C12.653399,18.1484857 12.7245441,18.3174262 12.7245441,18.5177679 L12.7245441,19.9661608 C12.7245441,20.1666183 12.653399,20.3378763 12.5123835,20.4779649 C12.3702092,20.6203709 12.1999941,20.6903572 12,20.6903572 C11.79989,20.6903572 11.6296749,20.6203709 11.4875007,20.4779649 C11.3464851,20.3378763 11.2753401,20.1665025 11.2753401,19.9661608 L11.2753401,18.5177679 C11.2753401,18.3173103 11.3464851,18.1483698 11.4875007,18.0059638 C11.6296749,17.8635578 11.79989,17.7935715 12,17.7935715 L12.0001159,17.7935715 Z M7.39515352,15.8816929 C7.59445239,15.8816929 7.76547862,15.9516792 7.90718937,16.0965185 C8.04855251,16.2390404 8.11981344,16.4104142 8.11981344,16.6107559 C8.11981344,16.8086643 8.04762554,16.9776049 7.90429258,17.1200109 L6.88068438,18.1436191 C6.73758317,18.2884583 6.56783152,18.3584447 6.37154532,18.3584447 C6.17120361,18.3584447 6.00029326,18.2884583 5.8593936,18.1483698 C5.71710348,18.0059638 5.64665365,17.83459 5.64665365,17.6342483 C5.64665365,17.4314733 5.71594477,17.2599836 5.85591745,17.1200109 L6.87975741,16.0965185 C7.02285862,15.9516792 7.19481183,15.8816929 7.39422656,15.8816929 L7.39515352,15.8816929 Z M12,7.6548214 C12.7881575,7.6548214 13.5152507,7.85041236 14.1808162,8.23649598 C14.8470769,8.62767793 15.3742919,9.15385008 15.7619977,9.8201108 C16.1503987,10.4840541 16.344831,11.210568 16.344831,12 C16.344831,12.789432 16.1508622,13.5159459 15.7619977,14.1822066 C15.3733649,14.8461499 14.8459182,15.3723221 14.1808162,15.7633882 C13.5160618,16.1520209 12.7892003,16.3451786 12,16.3451786 C11.2109156,16.3451786 10.4842858,16.1520209 9.81895208,15.763504 C9.15385007,15.3723221 8.62686681,14.846034 8.23777056,14.1822066 C7.84913778,13.5159459 7.65493727,12.789432 7.65493727,12 C7.65493727,11.210568 7.84983301,10.4840541 8.23777056,9.8201108 C8.6257081,9.15385008 9.15269136,8.62767791 9.81895208,8.23661184 C10.4848652,7.8502965 11.2118425,7.6548214 12,7.6548214 Z" id="形状" fill="#FFFFFF"></path>
                </g>
            </g>
        </g>
    </g>
</svg>